<?xml version="1.0" encoding="UTF-8" standalone="no"?>
<!-- Created with Inkscape (http://www.inkscape.org/) -->

<svg
   xmlns:dc="http://purl.org/dc/elements/1.1/"
   xmlns:cc="http://creativecommons.org/ns#"
   xmlns:rdf="http://www.w3.org/1999/02/22-rdf-syntax-ns#"
   xmlns:svg="http://www.w3.org/2000/svg"
   xmlns="http://www.w3.org/2000/svg"
   xmlns:sodipodi="http://sodipodi.sourceforge.net/DTD/sodipodi-0.dtd"
   xmlns:inkscape="http://www.inkscape.org/namespaces/inkscape"
   width="210mm"
   height="297mm"
   viewBox="0 0 744.09448819 1052.3622047"
   id="svg2"
   version="1.1"
   inkscape:version="0.91 r13725"
   sodipodi:docname="board.svg">
  <defs
     id="defs4" />
  <sodipodi:namedview
     id="base"
     pagecolor="#ffffff"
     bordercolor="#666666"
     borderopacity="1.0"
     inkscape:pageopacity="0.0"
     inkscape:pageshadow="2"
     inkscape:zoom="0.7"
     inkscape:cx="538.12156"
     inkscape:cy="591.80656"
     inkscape:document-units="px"
     inkscape:current-layer="layer1"
     showgrid="false"
     inkscape:window-width="1680"
     inkscape:window-height="990"
     inkscape:window-x="0"
     inkscape:window-y="31"
     inkscape:window-maximized="1" />
  <metadata
     id="metadata7">
    <rdf:RDF>
      <cc:Work
         rdf:about="">
        <dc:format>image/svg+xml</dc:format>
        <dc:type
           rdf:resource="http://purl.org/dc/dcmitype/StillImage" />
        <dc:title></dc:title>
      </cc:Work>
    </rdf:RDF>
  </metadata>
  <g
     inkscape:label="Layer 1"
     inkscape:groupmode="layer"
     id="layer1">
    <path
       inkscape:connector-curvature="0"
       id="path3371"
       d="m 628.00985,919.33035 c -0.21885,-0.21885 -67.03916,-0.736 -148.48959,-1.14922 -81.45042,-0.41323 -155.68542,-0.98033 -164.96667,-1.26022 -9.28125,-0.27988 -39.09375,-0.53615 -66.25,-0.56947 l -49.375,-0.0606 0.34823,-398.43755 c 0.19153,-219.14065 0.47278,-399.15337 0.625,-400.02826 0.22279,-1.28053 41.99207,-1.58318 214.2015,-1.55202 193.99207,0.0351 213.99549,-0.14564 214.68392,-1.93966 0.62752,-1.63529 1.03075,-1.6913 2.32526,-0.32298 1.24804,1.31925 1.56609,82.50774 1.56609,399.78042 0,218.96875 0.39375,399.88282 0.875,402.03125 0.79203,3.5359 0.58958,3.90625 -2.13542,3.90625 -1.65573,0 -3.18947,-0.17906 -3.40832,-0.39791 z m -0.4192,-5.3973 c 0.7831,-1.26709 1.24664,-115.02526 0.47185,-115.80004 -0.21331,-0.21332 -95.87134,-0.76082 -212.57339,-1.21666 l -212.18552,-0.8288 -0.0287,10.4141 c -0.0158,5.72776 -0.37202,31.84498 -0.7916,58.03826 l -0.7629,47.62414 6.7291,-0.004 c 3.701,-0.003 75.01671,0.44673 158.47936,0.99779 129.80297,0.85702 151.598,0.74927 150.69755,-0.745 -0.85896,-1.42543 -0.70253,-1.46363 0.84995,-0.20756 1.36044,1.10067 10.42369,1.63502 31.80245,1.875 16.44489,0.1846 40.38626,0.52027 53.20305,0.74595 15.25774,0.26866 23.58139,-0.0396 24.1088,-0.89304 z m 0.71294,-126.39229 0,-6.25 -26.5625,-0.22148 c -14.60938,-0.12188 -35,-0.33253 -45.3125,-0.46825 -10.3125,-0.13572 -81.1875,-0.60982 -157.5,-1.05355 -76.3125,-0.44375 -149.01563,-1.14079 -161.5625,-1.54898 -18.78932,-0.61126 -22.81588,-0.44151 -22.83164,0.96255 -0.0157,1.40058 -0.20638,1.4094 -1.06859,0.0495 -0.63114,-0.99546 -2.74104,-1.49371 -5.29335,-1.25 l -4.24392,0.40521 -0.37215,7.8125 -0.37214,7.8125 212.55964,0 212.55965,0 0,-6.25 z m -83.75,-10.7435 c 0,-0.1656 -1.43397,-3.15605 -3.18659,-6.64543 -3.26009,-6.4907 -3.52971,-6.65332 -13.68841,-8.2557 -2.75,-0.43378 -6.74175,-1.8025 -8.87057,-3.04163 -2.29595,-1.3364 -4.5855,-1.85285 -5.62791,-1.26949 -0.96654,0.5409 -5.31519,1.62863 -9.66367,2.41715 -7.64105,1.38559 -8.18052,1.3054 -16.07732,-2.38996 -7.86541,-3.68067 -8.36817,-3.75671 -13.44403,-2.03341 -5.00707,1.69994 -9.64024,1.38507 -18.35892,-1.24766 -1.37141,-0.41412 -2.28031,0.33118 -2.76657,2.26858 -0.39829,1.58694 -2.40604,4.49667 -4.46165,6.46607 -6.88079,6.59221 -22.13231,5.6672 -32.69289,-1.98284 -4.19259,-3.0371 -5.38561,-3.37639 -7.63646,-2.17176 -3.89663,2.08541 -15.55255,0.35738 -22.0375,-3.26713 -4.11914,-2.30222 -6.04884,-2.75704 -7.77596,-1.83271 -3.6753,1.96696 -13.9019,1.37194 -19.40859,-1.12925 -4.93111,-2.23978 -5.15146,-2.23946 -7.93083,0.0113 -3.69253,2.99004 -10.81997,4.88395 -16.65157,4.4247 -4.03956,-0.31814 -4.79136,0.076 -6.08023,3.1876 -0.80888,1.95284 -4.22328,6.02541 -7.58755,9.05017 l -6.11685,5.49958 10.76812,0.40525 c 7.49278,0.28199 11.15902,-0.0675 12.0533,-1.14908 2.25835,-2.73127 20.01235,-7.47478 30.99265,-8.28061 14.01985,-1.02889 23.68035,0.52958 37.03653,5.97484 10.61195,4.32645 11.55758,4.4851 26.73229,4.4851 8.65215,0 16.26555,-0.46741 16.91868,-1.0387 0.65312,-0.57128 4.84375,-2.11815 9.3125,-3.4375 11.23912,-3.31821 24.58541,-3.0016 34.375,0.81546 5.96915,2.32743 10.81685,3.06326 23.75,3.60504 19.0839,0.79941 28.125,0.98014 28.125,0.5622 z m 30,0.0745 c 0,-1.39726 -4.37312,-7.6039 -7.87043,-11.17028 -3.17326,-3.23594 -3.56406,-4.40848 -3.0347,-9.105 0.3714,-3.29502 2.30719,-7.95048 4.97934,-11.97504 14.3322,-21.58584 15.70986,-38.85156 4.83127,-60.5483 -4.8899,-9.75263 -6.16638,-13.81723 -6.66411,-21.2199 -0.15022,-2.23438 -0.54056,-4.0625 -0.86741,-4.0625 -0.32684,0 -2.45393,1.26562 -4.72684,2.8125 -7.28885,4.96056 -7.15019,13.15587 0.48308,28.55216 4.01532,8.09889 4.60078,10.43618 4.66797,18.63534 0.0657,8.01799 -0.49329,10.57831 -3.8618,17.68812 -2.16625,4.57223 -6.70346,11.1816 -10.0827,14.6875 -7.16785,7.43652 -11.70752,8.31554 -17.44734,3.37837 l -3.48307,-2.99602 2.78837,-9.47763 c 3.52245,-11.97278 3.57518,-21.83948 0.16449,-30.78034 -3.28382,-8.60828 -3.80487,-10.58413 -4.54025,-17.21668 -1.1244,-10.14133 1.37685,-14.3018 9.99306,-16.6219 24.38128,-6.56518 45.64904,-28.93471 46.95112,-49.38336 0.93151,-14.62905 -8.51877,-29.33359 -24.17129,-37.61032 -14.76683,-7.80839 -29.40964,-9.58713 -46.85876,-5.69217 -22.02858,4.91718 -37.24829,17.99393 -43.30778,37.20995 -1.88934,5.99154 -1.85219,6.84194 0.735,16.82288 3.8946,15.02476 10.8157,24.42025 23.42718,31.80271 5.20428,3.04648 12.16692,6.2322 15.47252,7.0794 6.51075,1.66865 8.70279,5.13268 6.20333,9.80296 -2.12315,3.96714 -1.45617,11.9404 1.84475,22.05247 4.14675,12.70322 4.07542,20.4647 -0.26694,29.04722 -3.32738,6.57644 -11.65238,13.95684 -15.74313,13.95684 -4.14865,0 -10.72608,-3.93323 -12.98736,-7.7663 -2.79715,-4.74139 -5.37757,-14.14675 -5.37757,-19.60068 0,-6.38695 -2.45944,-15.64062 -5.49279,-20.66667 l -2.89606,-4.79858 -3.80265,7.60978 c -3.58767,7.17955 -3.70698,7.87797 -2.11044,12.35362 0.93071,2.60912 1.7169,8.0215 1.74707,12.0275 0.0484,6.42099 -0.3779,7.71642 -3.59898,10.9375 -2.00962,2.00963 -4.45368,3.65385 -5.43127,3.65385 -2.9038,0 -5.49952,-3.95815 -7.10625,-10.83612 l -1.50935,-6.46114 -4.38802,2.589 c -4.19761,2.47665 -4.35335,2.82026 -3.58885,7.91828 1.95396,13.02998 -8.17905,23.51528 -19.75674,20.4436 -15.00919,-3.98212 -14.16206,-16.43277 1.50009,-22.04752 11.31209,-4.05528 23.66297,-11.74668 31.0318,-19.32475 7.3112,-7.51878 14.75832,-21.37717 16.00812,-29.78957 1.06879,-7.19393 -2.55232,-17.3526 -8.68563,-24.36678 -2.40465,-2.75 -4.38288,-5.3742 -4.39608,-5.83155 -0.0132,-0.45735 -3.35804,-3.3378 -7.43301,-6.40101 -17.00196,-12.78061 -49.42189,-14.61884 -70.2054,-3.98069 -9.24076,4.72993 -28.21201,21.98975 -26.75733,24.34349 0.37089,0.60011 -0.065,1.54756 -0.96858,2.10544 -2.78883,1.7218 -5.08233,11.03471 -4.23678,17.20374 0.89128,6.50253 4.67674,14.55406 9.07048,19.29251 1.65366,1.78339 3.00665,3.55987 3.00665,3.94775 0,1.32095 16.85143,13.44125 23.75,17.08204 3.78125,1.9956 9.26562,4.32255 12.1875,5.171 3.24113,0.94116 5.3125,2.28291 5.3125,3.44123 0,1.04423 -0.5068,1.58538 -1.12623,1.20255 -0.6204,-0.38342 -1.04146,2.15407 -0.9375,5.6497 0.2128,7.15535 -2.36122,10.29362 -7.90617,9.63929 -4.51478,-0.53277 -6.51137,-5.2554 -5.8355,-13.80299 0.31258,-3.95312 0.0839,-7.1875 -0.50813,-7.1875 -0.59205,0 -3.93846,-1.6875 -7.43647,-3.75 -3.49802,-2.0625 -6.47589,-3.75117 -6.61752,-3.75262 -0.14161,-10e-4 -0.0669,3.69879 0.166,8.22272 0.5234,10.16594 -0.33342,13.80925 -3.66722,15.59345 -3.61658,1.93553 -6.6536,-1.0936 -9.94695,-9.92107 -1.43994,-3.85961 -6.17691,-14.61123 -10.52661,-23.89248 -8.93687,-19.06921 -11.22658,-27.53938 -10.42823,-38.57646 l 0.55373,-7.6552 -3.09618,2.02869 c -1.7029,1.11577 -4.9442,3.11905 -7.20289,4.45171 -3.36941,1.988 -4.25907,3.43901 -4.95533,8.08205 -1.74067,11.60759 0.36872,19.1274 10.63677,37.91921 5.0264,9.19897 5.97094,18.27023 2.3083,22.16893 -6.36034,6.77027 -12.61961,2.64671 -25.51569,-16.80955 -8.89632,-13.42185 -12.95818,-22.77225 -12.95818,-29.8297 0,-7.16163 1.68073,-8.77094 20.94651,-20.05636 10.46691,-6.13128 17.38387,-11.2882 24.10752,-17.97332 8.6096,-8.56026 9.62798,-10.11365 11.71809,-17.87446 1.35554,-5.03329 2.04115,-10.69869 1.6812,-13.8922 -2.69825,-23.93884 -38.33754,-49.09572 -65.92112,-46.5321 -23.02794,2.14023 -42.37869,13.67106 -54.07962,32.22531 -3.34896,5.31048 -5.17221,18.59963 -3.57416,26.05108 3.24839,15.14669 10.71444,24.46732 29.48653,36.81107 7.85463,5.16489 15.10513,10.67222 16.11222,12.2385 1.00709,1.56629 2.40845,6.0326 3.11414,9.92514 2.08607,11.50661 7.04074,21.25866 17.81995,35.07429 10.9077,13.98029 10.78054,23.06822 -0.46598,33.30217 -17.26297,15.70872 -17.24142,15.56888 -2.30931,14.98308 10.26163,-0.40258 11.51296,-0.74041 15.9375,-4.30291 6.07718,-4.89314 10.73844,-11.68119 9.98908,-14.54675 -0.8395,-3.2103 0.97712,-3.77539 6.66173,-2.07224 6.01224,1.80131 13.61819,0.0175 17.81335,-4.17761 l 2.64437,-2.64437 4.71915,2.716 c 5.50532,3.16847 11.87325,3.47055 18.12196,0.85968 4.0028,-1.67248 4.64479,-1.65435 6.48217,0.18304 5.69214,5.69215 18.92238,8.36126 25.8344,5.21193 2.80928,-1.28 3.631,-1.06626 6.62132,1.72227 6.72621,6.27232 15.91513,8.92506 24.3515,7.03 6.34918,-1.42622 10.36863,-4.9047 12.24816,-10.59973 1.56556,-4.74369 2.06334,-4.94046 5.82784,-2.3037 1.48211,1.03811 5.29698,2.24416 8.47748,2.6801 4.82295,0.66105 6.42119,0.32058 9.62945,-2.0514 3.28108,-2.4258 4.00073,-2.56882 4.894,-0.97264 0.57599,1.02925 3.98832,3.13657 7.58294,4.68294 7.76929,3.34225 16.22143,2.88114 23.25488,-1.26869 3.95031,-2.33075 4.57726,-2.40616 5.55018,-0.66765 2.02264,3.61425 8.84562,6.12954 16.90992,6.23383 7.01491,0.0907 7.81236,0.36312 7.8125,2.6688 8e-5,1.41227 1.67526,5.20915 3.72262,8.4375 l 3.72246,5.86972 12.52754,0 c 6.89014,0 12.52753,-0.30103 12.52753,-0.66897 z m 30.71291,-2.89866 c -2.15375,-9.14672 -2.22234,-24.74286 -0.14375,-32.68236 3.26385,-12.46671 3.89401,-25.90144 1.48469,-31.65246 -2.20392,-5.26072 -3.85972,-5.23923 -4.92987,0.064 -0.3844,1.90493 -1.0814,4.45221 -1.54887,5.66062 -0.6773,1.7508 -0.26113,2.13168 2.04872,1.875 3.72154,-0.41355 4.66212,3.33633 1.667,6.64589 -2.61191,2.88612 -5.03658,3.08605 -6.46528,0.53311 -1.64864,-2.94594 -8.9365,10.17956 -11.22653,20.21904 -1.0661,4.67382 -3.54951,11.66839 -5.5187,15.54349 -3.50214,6.89175 -4.33812,11.43208 -2.82905,15.3647 0.62265,1.62257 3.10466,1.93883 14.49585,1.84708 l 13.74456,-0.11075 -0.77877,-3.30736 z m -9.41308,-5.74731 c -1.93471,-2.33119 -1.26782,-5.66866 1.47827,-7.39798 3.55225,-2.23698 5.45015,0.68702 3.5007,5.39339 -1.7653,4.26181 -2.76994,4.6663 -4.97897,2.00459 z m 3.70017,-5.83256 c 0,-0.6875 -0.5625,-0.90237 -1.25,-0.47747 -0.6875,0.4249 -1.25,1.33504 -1.25,2.02254 0,0.6875 0.5625,0.90236 1.25,0.47746 0.6875,-0.4249 1.25,-1.33503 1.25,-2.02253 z m -11.14848,5.46003 c -0.0559,-0.85937 -0.80465,-1.42187 -1.66402,-1.25 -2.37429,0.47487 -2.69024,-7.08915 -0.37634,-9.00952 1.54974,-1.28616 2.31514,-1.29679 3.81384,-0.053 1.03125,0.85586 1.84962,2.19036 1.81862,2.96555 -0.0871,2.17951 -3.47732,9.11339 -3.5921,7.34695 z m 0.14848,-8.0625 c -1.16667,-1.16666 -1.5,-0.83333 -1.5,1.5 0,2.33334 0.33333,2.66667 1.5,1.5 1.16666,-1.16666 1.16666,-1.83333 0,-3 z m 5.46623,-5.15371 c -2.71913,-1.98829 -2.2043,-6.94002 0.91948,-8.84362 1.78887,-1.09013 2.60916,-0.90899 3.93029,0.86793 3.21906,4.32968 -0.79904,10.93765 -4.84977,7.97569 z m 3.69539,-5.78704 c -1.28561,-2.08015 -4.46667,0.84283 -3.54139,3.25407 0.63745,1.6612 0.93764,1.66453 2.5736,0.0285 1.01859,-1.01859 1.45409,-2.49577 0.96779,-3.28263 z m -7.97211,-6.16567 c -2.34059,-1.48329 -1.35913,-5.10888 1.98262,-7.32399 2.51148,-1.66476 2.87933,-1.63996 3.60183,0.24286 0.85081,2.21717 -1.29896,8.20088 -2.93466,8.16842 -0.53037,-0.01 -1.72278,-0.49982 -2.64979,-1.08729 z m 3.56049,-4.66611 c 0,-1.03125 -0.5625,-1.52737 -1.25,-1.10247 -0.6875,0.4249 -1.25,1.61629 -1.25,2.64754 0,1.03125 0.5625,1.52736 1.25,1.10246 0.6875,-0.4249 1.25,-1.61628 1.25,-2.64753 z m 5.25,0.52253 c -2.14802,-2.14801 -1.85304,-5.28706 0.8053,-8.56996 3.3836,-4.17856 7.01782,-2.48316 5.96467,2.78258 -0.78459,3.92293 -2.82661,7.28738 -4.42302,7.28738 -0.46583,0 -1.52195,-0.675 -2.34695,-1.5 z m 4.52915,-5.16608 c 0.58493,-3.01603 -1.86104,-2.56778 -2.66,0.48746 -0.42775,1.63572 -0.13968,2.39401 0.79171,2.08392 0.80527,-0.26811 1.64601,-1.42522 1.86829,-2.57138 z m 13.9606,40.10358 c -0.006,-2.23437 -0.5472,-8.84375 -1.20345,-14.6875 -1.46864,-13.07785 -5.78347,-59.53173 -18.80902,-202.5 -12.86213,-141.17472 -11.85055,-131.85758 -14.76078,-135.95267 -1.33767,-1.88228 -4.21769,-7.20519 -6.40005,-11.82868 -3.82433,-8.10212 -8.62127,-13.46865 -12.03914,-13.46865 -0.89956,0 -2.45788,1.17403 -3.46293,2.60895 -2.50618,3.57808 -0.70466,9.52563 4.24315,14.00839 4.82058,4.36748 4.45259,7.62114 -0.92097,8.14308 -9.31443,0.90471 -19.90424,-15.59679 -16.75493,-26.10825 2.5349,-8.46075 8.48227,-13.61442 16.36837,-14.18395 3.40503,-0.24592 11.75262,3.0693 14.82208,5.88653 l 3.01828,2.77025 -0.84694,-11.875 c -2.6708,-37.44758 -9.65456,-103.08133 -11.06574,-103.99633 -0.85397,-0.55373 -15.33393,-1.01487 -32.17768,-1.02477 -16.84375,-0.01 -57.47002,-0.3691 -90.28059,-0.79821 l -59.6556,-0.78021 2.12567,5.48726 c 1.16913,3.018 4.9589,8.34371 8.42174,11.83493 12.42576,12.5276 34.44148,15.58827 43.92344,6.10631 5.2391,-5.2391 3.10994,-8.45754 -5.86795,-8.86996 -8.21451,-0.37737 -10.3819,-2.24553 -6.39001,-5.50784 3.89576,-3.18375 9.9102,-4.15981 19.38212,-3.14545 7.68603,0.8231 7.98364,0.99457 13.10291,7.54926 2.88105,3.68886 5.23827,7.75539 5.23827,9.03671 0,5.25515 -12.31098,24.1083 -15.74255,24.1083 -2.68492,0 -9.50154,3.86564 -11.47868,6.50945 -1.33954,1.79122 -3.31406,2.06072 -12.27852,1.67587 -5.87527,-0.25223 -12.2341,-0.0135 -14.13075,0.53041 -2.47107,0.7087 -5.01385,0.26964 -8.97148,-1.54908 -3.03766,-1.39595 -7.34687,-2.4718 -9.57604,-2.39078 -3.17157,0.11525 -5.07448,-0.9078 -8.75,-4.70427 -2.58333,-2.66836 -6.08443,-5.0417 -7.78021,-5.27408 -2.84346,-0.38965 -3.79581,-1.62407 -7.55885,-9.79752 -0.47479,-1.03125 -2.10172,-2.05872 -3.61544,-2.28326 -3.10866,-0.46115 -5.57762,-5.54779 -4.43706,-9.14139 0.72808,-2.29392 -3.83032,-13.36722 -7.20184,-17.49476 -1.46577,-1.79446 -6.17432,-2.0842 -38.51176,-2.36977 -20.263,-0.17895 -40.23402,-0.24334 -44.38006,-0.14309 l -7.53823,0.18227 -3.49763,34.6875 c -9.10193,90.26742 -10.29939,102.8125 -9.81374,102.8125 0.28629,0 3.20946,-2.4176 6.49596,-5.37245 3.79646,-3.41333 8.64956,-6.24188 13.30866,-7.75673 4.03327,-1.31137 7.77145,-2.73512 8.30707,-3.1639 1.9668,-1.57452 18.6648,0.17681 25.27833,2.65126 7.57748,2.8351 15.62282,10.89261 15.62282,15.64646 0,7.49143 -3.18468,16.18004 -7.51935,20.51471 -10.22114,10.22114 -26.37522,13.62347 -35.39633,7.45507 -5.96211,-4.07675 -7.91552,-8.69995 -5.81677,-13.76678 1.86785,-4.50939 6.83733,-8.70764 10.30727,-8.70764 2.05731,0 2.3667,0.60487 1.7884,3.49638 -1.00497,5.02489 0.69373,6.94415 5.97056,6.74577 6.34847,-0.23866 11.91622,-4.43822 11.91622,-8.98798 0,-6.64199 -5.49992,-9.50464 -16.27229,-8.46955 -13.90466,1.33606 -27.10734,19.16135 -36.82275,49.71538 -2.35654,7.41108 -4.09248,17.43097 -5.73888,33.125 -3.13578,29.89129 -3.22911,30.83147 -6.1419,61.875 -1.3869,14.78125 -3.0942,32.21875 -3.79397,38.75 -0.69978,6.53125 -2.38971,23.40625 -3.7554,37.5 -1.36569,14.09375 -3.32045,33.78125 -4.34391,43.75 -1.02348,9.96875 -2.71067,27.40625 -3.74932,38.75 -1.03865,11.34375 -2.42176,25.40625 -3.07357,31.25 -0.65181,5.84375 -1.52621,15.1916 -1.94311,20.773 -0.73463,9.83489 -0.66903,10.17183 2.12605,10.92043 1.58622,0.42484 17.27337,0.78012 34.86032,0.78951 l 31.97628,0.017 1.72038,-3.21456 c 0.9462,-1.76801 5.16498,-5.92158 9.37505,-9.23014 11.68772,-9.18501 14.48272,-17.44365 8.99395,-26.57519 -10.9372,-18.19602 -19.82392,-27.05097 -33.14007,-33.02165 -12.38909,-5.55498 -20.52901,-3.49245 -23.321,5.9092 -1.6409,5.52552 -1.55113,6.74414 1.24592,16.91048 2.46917,8.97464 2.7836,11.81242 1.73878,15.6926 -2.18373,8.10971 -8.78641,9.59854 -15.23555,3.4354 -3.97009,-3.79404 -4.03771,-3.80915 -5.2169,-1.16648 -0.98545,2.20848 -0.57271,3.17332 2.35679,5.50922 3.00167,2.39345 3.42886,3.44481 2.75952,6.79147 -0.71697,3.58493 -0.50186,3.95965 2.27301,3.95965 1.8899,0 3.84993,1.19805 5.11252,3.125 2.57095,3.92378 6.99665,4.08364 8.65113,0.3125 0.81505,-1.85776 2.51197,-2.93794 4.9988,-3.182 5.95979,-0.58492 13.66462,-13.45179 9.91737,-16.56172 -2.04885,-1.70039 -2.4299,-6.91142 -0.58862,-8.04939 0.68833,-0.42541 0.88834,-3.16286 0.45963,-6.29066 -0.44786,-3.26757 -0.13893,-7.03448 0.75365,-9.18937 1.25017,-3.01818 2.17447,-3.60603 5.32669,-3.3878 4.40398,0.30489 7.26391,3.49235 6.33176,7.0569 -0.85233,3.2593 5.49495,12.41654 8.60644,12.41654 1.29623,0 2.98702,1.38321 3.75731,3.0738 1.119,2.45593 0.98799,3.7034 -0.6518,6.20601 -2.93,4.47175 -2.77843,7.44484 0.2821,5.5335 2.99125,-1.86806 6.92757,-0.45052 5.9346,2.13715 -0.46313,1.20688 -0.2275,1.6124 0.62922,1.08293 2.06115,-1.27386 0.015,4.66502 -2.46637,7.15857 -3.7067,3.72492 -7.19245,1.00014 -8.05679,-6.2979 -0.41294,-3.48658 -1.95499,-7.95595 -3.43631,-9.95955 -2.10779,-2.85093 -2.40519,-4.16161 -1.37926,-6.07856 1.06642,-1.99262 0.64072,-3.17444 -2.30532,-6.39994 -1.98728,-2.17573 -4.78762,-3.95595 -6.22295,-3.95595 -1.43533,0 -2.93347,-0.84375 -3.3292,-1.875 -0.39573,-1.03125 -1.10887,-1.875 -1.58477,-1.875 -1.2825,0 -0.0441,8.60528 1.73074,12.02627 1.78951,3.44928 -0.0262,12.34348 -3.92603,19.23146 -1.26334,2.23134 -3.04579,5.42372 -3.96101,7.09417 -2.0966,3.8267 -5.75693,5.19348 -11.88769,4.43892 -2.68114,-0.33 -6.12601,0.11775 -7.80036,1.01382 -2.57483,1.378 -3.35366,1.28351 -5.51076,-0.66865 -1.38169,-1.2504 -2.51215,-2.96327 -2.51215,-3.8064 0,-0.84312 -1.73519,-3.22941 -3.85599,-5.30289 -3.6785,-3.59641 -3.81593,-4.09056 -2.98564,-10.73591 1.20448,-9.6403 3.28279,-11.05747 8.624,-5.88056 5.09413,4.93741 9.29984,4.82491 11.7556,-0.31448 1.47084,-3.07815 1.35251,-4.76661 -0.92579,-13.21012 -3.12656,-11.58719 -3.27615,-17.17564 -0.63632,-23.77321 2.15091,-5.37564 6.22545,-7.61242 13.8669,-7.61242 5.59642,0 17.18807,4.15475 22.14936,7.9389 l 3.98073,3.03625 -2.82915,-8.30007 c -1.55604,-4.56504 -2.84368,-10.06275 -2.86143,-12.21713 -0.0383,-4.64835 -4.92191,-9.32681 -18.74536,-17.95795 -16.43064,-10.259 -26.61181,-24.18232 -29.48251,-40.31895 -1.16924,-6.5725 1.54746,-19.55737 5.49457,-26.26215 4.83044,-8.20523 17.91306,-19.00871 30.20103,-24.93962 5.84375,-2.82055 10.86022,-5.32059 11.14771,-5.55565 1.46819,-1.20043 -3.71448,-7.44003 -9.53303,-11.47715 -7.23412,-5.0193 -9.75772,-9.15478 -11.63853,-19.07221 -1.37949,-7.27405 -6.32514,-16.66512 -9.39725,-17.84399 -3.18118,-1.22074 -0.81168,-3.28028 3.77396,-3.28028 5.87899,0 10.62554,4.42262 18.19361,16.95195 5.0712,8.39562 7.55508,11.21399 12.22164,13.86747 7.07832,4.02483 14.78506,11.0616 17.24201,15.74308 1.18723,2.26214 2.80788,3.4375 4.73981,3.4375 3.56067,0 10.3915,2.35039 19.18757,6.60217 3.60937,1.74466 6.5625,2.95303 6.5625,2.68527 0,-0.26776 -0.88888,-2.6076 -1.97528,-5.19964 -1.21302,-2.89416 -5.08207,-7.28201 -10.02624,-11.37063 -4.49627,-3.71824 -10.7332,-10.63274 -14.12591,-15.66053 -3.85244,-5.70905 -7.61566,-9.754 -10.28626,-11.0563 -2.31623,-1.12949 -9.617,-4.64321 -16.22395,-7.80827 -9.70011,-4.64685 -13.57835,-7.37645 -20.14584,-14.17919 -6.72696,-6.96793 -8.35927,-9.50198 -9.44081,-14.6562 -2.3824,-11.35358 2.25394,-27.35876 10.71755,-36.99829 4.63802,-5.28241 18.26425,-12.61707 27.75674,-14.94075 8.39927,-2.05606 30.5617,-2.1268 35.4263,-0.113 3.20753,1.32778 3.61972,1.20844 4.25816,-1.23294 0.38876,-1.48666 2.40577,-5.85158 4.48224,-9.69982 4.62478,-8.57096 6.98811,-20.09035 5.55953,-27.0984 -0.81766,-4.01118 -2.50436,-6.36589 -7.89131,-11.01664 -3.76825,-3.25327 -8.06065,-8.01624 -9.53867,-10.58435 -2.48389,-4.31585 -3.49164,-4.87724 -13.31219,-7.41595 -12.43018,-3.21332 -20.36643,-7.94037 -28.77193,-17.13734 -7.85453,-8.59417 -10.21213,-13.74787 -10.21213,-22.32372 0,-10.76741 3.98252,-19.67004 13.14341,-29.38105 6.95986,-7.37783 8.91451,-8.68255 16.82397,-11.22996 12.38982,-3.99042 20.29078,-4.55689 30.42237,-2.18119 11.91087,2.79291 20.68252,7.25094 27.90305,14.18121 12.01188,11.529 14.79931,23.20733 9.1458,38.31768 -2.05547,5.49372 -4.32275,8.46355 -10.81195,14.16215 -13.96592,12.26438 -16.62665,15.01343 -16.62665,17.17848 0,1.15104 3.03163,5.28542 6.73698,9.1875 12.20173,12.84962 13.76562,24.38185 5.70848,42.0947 -3.83818,8.43788 -6.43663,19.18142 -5.58121,23.07608 0.44206,2.0127 2.63247,6.08145 4.86757,9.04169 5.69683,7.54505 8.26818,14.84127 8.26818,23.46108 0,7.37523 -1.85577,12.148 -7.73844,19.90223 -3.99134,5.26117 -2.87799,10.93322 5.77306,29.41111 9.10918,19.4564 10.57535,34.80936 5.1215,53.62945 l -3.09387,10.67631 2.74756,6.02603 c 4.04392,8.86927 3.838,21.26427 -0.50804,30.57957 -2.49875,5.35584 -3.08424,8.06359 -2.43255,11.25 1.00318,4.90498 1.44979,4.76048 8.27939,-2.67855 4.44927,-4.8463 5.20499,-6.49022 5.45887,-11.875 0.39653,-8.41013 1.929,-14.0647 7.62233,-28.125 5.6252,-13.89206 8.43449,-24.18255 9.21372,-33.75 0.95009,-11.6653 0.14352,-13.38568 -9.06215,-19.32915 -11.45813,-7.39775 -16.77241,-12.99423 -21.54541,-22.68958 -3.38551,-6.87694 -4.0993,-9.77079 -4.09277,-16.59297 0.007,-7.39138 0.49666,-9.02551 4.64,-15.48702 6.86866,-10.71164 14.11722,-17.99955 22.64642,-22.76935 4.18289,-2.3392 8.58013,-5.90343 9.77164,-7.9205 1.19152,-2.01708 6.70434,-7.7583 12.25072,-12.75829 14.52682,-13.09574 16.28959,-17.78007 10.80133,-28.70314 -2.53443,-5.04413 -4.11201,-6.28233 -15.27729,-11.99056 -13.16155,-6.72882 -23.87151,-15.35899 -28.85271,-23.24972 -3.82103,-6.0529 -6.69413,-17.00052 -6.11683,-23.30745 1.09844,-12.00037 15.99208,-30.92942 28.78988,-36.5905 6.77705,-2.9978 24.21877,-4.6671 34.83312,-3.33379 11.14168,1.39956 23.89854,8.83341 29.80174,17.36646 7.95268,11.49556 10.00896,16.99481 9.99516,26.73056 -0.0226,15.93098 -9.3171,30.0432 -24.83958,37.71483 -12.84243,6.34707 -13.71982,7.86896 -10.9964,19.07407 3.86523,15.90307 0.66937,24.97599 -11.9185,33.8361 -3.41865,2.40625 -6.22837,4.67723 -6.24382,5.04662 -0.0155,0.36938 1.80004,0.79453 4.03442,0.94476 6.8313,0.45931 11.30166,1.68522 17.45845,4.78764 3.24276,1.63403 6.13978,2.97098 6.43782,2.97098 0.98181,0 3.12953,-11.70736 3.8983,-21.25 1.30028,-16.1398 6.48254,-30.17458 14.5233,-39.33251 4.28586,-4.88134 15.25545,-8.96912 20.52171,-7.64739 4.72563,1.18607 9.89943,6.2397 8.94212,8.73443 -0.77684,2.02439 -1.03194,2.02591 -4.41679,0.0265 -4.74673,-2.80396 -11.20246,-1.58228 -15.5349,2.93982 -7.36901,7.69158 -11.04681,28.25817 -9.66174,54.02922 0.79918,14.86958 1.30205,17.61845 4.2315,23.13091 6.96421,13.10486 5.30406,32.07512 -3.63654,41.55384 -2.82988,3.00022 -4.32573,5.80642 -4.32573,8.1151 0,5.38515 -4.54718,17.72556 -11.39405,30.92186 -6.55645,12.63656 -9.22639,23.31869 -7.89374,31.58197 0.71571,4.43784 12.10086,23.44632 14.04321,23.44632 2.46931,0 15.9444,12.78116 20.73651,19.66865 6.54092,9.40093 8.88984,16.96253 7.77735,25.03672 -0.70438,5.1124 -0.26787,7.00016 3.20113,13.84356 2.20921,4.35818 4.96371,11.67068 6.1211,16.25 l 2.10435,8.32607 2.95772,-6.25 c 2.56857,-5.42768 2.89025,-7.64797 2.44494,-16.875 -0.28202,-5.84375 -0.52774,-15.19969 -0.54604,-20.79099 l -0.0333,-10.16599 -4.81471,-2.95901 c -4.64734,-2.85615 -11.93822,-10.71074 -16.21779,-17.47166 -4.06313,-6.419 -6.32273,-17.24927 -5.68197,-27.23365 0.54657,-8.51693 0.30195,-9.90443 -2.49019,-14.12362 -2.18016,-3.29445 -3.2859,-7.04067 -3.73705,-12.66112 -0.76002,-9.4683 0.70091,-14.6464 7.29159,-25.84396 6.75371,-11.47458 9.21477,-21.79135 7.34585,-30.79389 -1.57691,-7.59598 -0.64288,-9.98649 3.40055,-8.70315 5.93024,1.88219 7.24487,24.71027 2.2386,38.87204 -3.29544,9.3221 -4.15059,21.5785 -1.67809,24.051 1.068,1.068 2.87244,0.233 7.1875,-3.32602 3.16883,-2.61361 8.01581,-5.98228 10.77109,-7.48593 3.73076,-2.03602 5.62609,-4.2245 7.4247,-8.57312 1.49704,-3.6195 5.21556,-8.46722 9.78205,-12.75257 6.9689,-6.53991 13.40864,-15.44489 13.40864,-18.54176 0,-2.12664 -3.69317,-3.69083 -13.58299,-5.75292 -10.37185,-2.1626 -20.77429,-7.36567 -29.27245,-14.64145 -8.55611,-7.3254 -11.33245,-13.31886 -11.71026,-25.27967 -0.53292,-16.87116 7.30402,-32.72861 20.68886,-41.86236 7.04991,-4.81084 25.08926,-11.41927 31.23795,-11.44354 l 4.23611,-0.0168 -0.6617,-7.29731 c -0.72471,-7.99223 -2.97616,-13.2307 -8.91929,-20.75263 -2.14018,-2.70872 -6.14123,-9.45872 -8.89123,-15 l -5,-10.07506 -12.36358,-6.2713 c -22.3748,-11.34938 -30.47134,-22.70398 -29.29027,-41.07678 0.59937,-9.32386 4.16642,-17.049 11.21475,-24.28768 6.89116,-7.07729 13.32966,-10.70422 25.13183,-14.15724 8.98809,-2.62969 10.51762,-2.73171 21.0406,-1.40346 19.75048,2.49296 36.1096,12.90048 43.59927,27.73743 4.89255,9.69208 5.79068,16.87047 3.21801,25.72014 -2.96679,10.20539 -9.96704,17.15635 -25.57764,25.39753 -6.93705,3.66222 -13.17196,7.70337 -13.85537,8.98032 -2.21763,4.14366 -1.32393,9.36845 2.68186,15.67886 7.1428,11.25222 10.80515,19.82587 12.26412,28.71068 l 1.44152,8.77844 5.24747,1.6231 c 10.70348,3.3107 23.86726,13.93048 28.52129,23.00932 3.93376,7.67379 6.46351,19.56394 5.71187,26.84655 -0.78381,7.59448 -7.49183,19.79489 -14.42115,26.22889 l -4.32381,4.01474 3.23291,7.23526 c 1.7781,3.97939 3.9048,9.92581 4.72599,13.21429 1.98556,7.9512 0.90043,31.25532 -1.73591,37.27997 -1.95754,4.47343 -1.94298,4.53756 1.84391,8.125 18.75545,17.76768 19.34296,45.59505 1.322,62.61653 -5.58532,5.27555 -6.93327,7.3408 -7.15296,10.95941 -0.45721,7.53066 1.68415,15.66646 6.89694,26.20391 3.58108,7.23904 5.36885,12.86403 6.33332,19.92709 2.01009,14.72024 -0.25487,22.59707 -11.45385,39.83292 -4.25881,6.55455 -4.98621,8.58594 -4.47697,12.50257 0.33442,2.57203 2.02692,6.36266 3.7611,8.42363 l 3.15307,3.7472 1.51586,-4.67363 c 0.83374,-2.5705 2.52037,-6.10712 3.74805,-7.85915 1.2277,-1.75203 3.37915,-7.79392 4.781,-13.42643 1.58725,-6.3774 4.28735,-12.95666 7.15709,-17.43949 2.53455,-3.95921 5.81516,-10.57357 7.29025,-14.69857 2.01748,-5.64176 3.34369,-7.59623 5.35265,-7.88835 6.60445,-0.96039 7.94633,11.82931 3.5147,33.49954 -3.09562,15.13735 -3.24575,17.18638 -1.8628,25.42647 2.19836,13.09854 2.95433,14.58734 7.40699,14.58734 3.43444,0 3.78,-0.3723 3.77069,-4.0625 z m -374.73975,-14.9375 c -4.2003,-4.2003 0.45878,-8.71117 5.55112,-5.37453 4.25851,2.79027 3.93108,6.87453 -0.55112,6.87453 -1.925,0 -4.175,-0.675 -5,-1.5 z m 6,-1.66422 c 0,-2.28146 -3.02127,-3.6837 -5.1295,-2.38074 -1.08328,0.6695 -0.8602,1.39384 0.80405,2.61076 3.00826,2.1997 4.32545,2.12965 4.32545,-0.23002 z m 5.42145,-3.79049 c -1.39572,-3.63716 1.69928,-8.04529 5.6487,-8.04529 4.68162,0 7.07156,2.7153 5.30131,6.02304 -2.24261,4.19038 -9.59685,5.54856 -10.95001,2.02225 z m 6.9809,-1.36759 c 2.80862,-1.96723 2.84377,-2.15627 0.69318,-3.72881 -2.71353,-1.98419 -5.59553,-0.20511 -5.59553,3.45416 0,2.88848 1.0839,2.9492 4.90235,0.27465 z m 36.39162,-2.84552 c -1.72136,-3.2164 -1.63679,-6.73936 0.20603,-8.58218 2.32811,-2.32811 4.5023,-1.79008 6.7735,1.6762 1.66656,2.5435 1.80213,3.78853 0.68061,6.25 -1.68389,3.69573 -5.84271,4.05187 -7.66014,0.65598 z m 4.42298,-4.70688 c -0.43865,-2.9887 -3.21695,-3.58271 -3.21695,-0.6878 0,1.31772 0.35971,2.75554 0.79935,3.19519 1.29406,1.29405 2.7534,-0.21947 2.4176,-2.50739 z m -16.09842,-11.3562 c -2.61848,-2.8934 -2.73103,-6.95466 -0.2498,-9.01391 1.50725,-1.2509 2.48868,-1.14471 5.07347,0.5489 2.52228,1.65266 3.12252,2.94851 2.81876,6.08536 -0.46313,4.78234 -4.36774,5.99814 -7.64243,2.37965 z m 5.15199,-3.7066 c -0.27807,-2.41677 -1.10694,-3.4375 -2.79136,-3.4375 -3.18424,0 -3.82396,2.35164 -1.32068,4.85492 2.99589,2.99588 4.5579,2.45746 4.11204,-1.41742 z m -53.17394,-36.53447 c -5.20957,-3.16813 -5.84227,-4.56356 -4.04092,-8.91243 2.26315,-5.4637 7.47342,-7.79072 13.69352,-6.11581 7.63993,2.05721 9.62879,7.541 4.68832,12.92684 -3.84443,4.19099 -9.53397,5.02469 -14.34092,2.1014 z m 11.74265,-4.55456 c 2.04649,-3.12333 2.03667,-3.35714 -0.21008,-5 -4.4229,-3.23412 -13.68393,-1.03353 -12.3056,2.92402 2.07857,5.96818 9.19228,7.14811 12.51568,2.07598 z M 579.21875,670.6207 c -5.13684,-3.49057 -5.58195,-5.18121 -2.78705,-10.58595 2.95009,-5.70485 11.50732,-6.4726 19.05939,-1.71001 3.87083,2.44109 3.74807,8.39409 -0.25569,12.39784 -4.05215,4.05216 -9.95873,4.01458 -16.01665,-0.10188 z m 14.56517,-3.37506 c 1.07724,-1.71899 0.78449,-2.7456 -1.4082,-4.9383 -2.27542,-2.27543 -3.3618,-2.55664 -6.10317,-1.57986 -4.05355,1.44431 -6.14911,4.48787 -5.05434,7.34081 1.1078,2.88687 10.63181,2.26335 12.56571,-0.82265 z M 366.22455,456.94493 c -8.3209,-5.82819 -0.34118,-20.65417 11.11661,-20.65417 4.31914,0 9.71243,4.06359 9.71243,7.31787 0,2.83087 -4.94028,11.24855 -7.7614,13.22453 -3.52022,2.46565 -9.63237,2.51793 -13.06764,0.11175 z m 9.93864,-3.26068 c 3.90128,-1.77755 7.51973,-7.9791 6.51066,-11.15842 -0.57385,-1.80803 -1.87259,-2.47374 -4.767,-2.44348 -5.52198,0.0577 -9.13881,3.51005 -10.1889,9.72544 -0.84524,5.00291 -0.74448,5.23297 2.29195,5.23297 1.74682,0 4.51581,-0.61043 6.15329,-1.35651 z m 95.43585,-1.93894 c -1.8125,-1.8125 -3.29335,-4.48437 -3.29078,-5.9375 0.0113,-6.37436 8.38741,-14.51705 14.93325,-14.51705 3.5623,0 7.56208,4.36075 7.56208,8.24454 0,4.16283 -3.90294,9.62354 -9.23242,12.91734 -5.35326,3.3085 -6.00233,3.26246 -9.97213,-0.70733 z m 11.67552,-4.99693 c 4.65691,-3.91854 4.94176,-9.57743 0.51391,-10.20947 -3.5422,-0.50561 -10.48488,5.47347 -10.48488,9.02964 0,5.55855 4.17942,6.05309 9.97097,1.17983 z m -1.7751,-46.98575 c -2.96826,-4.23779 -2.39495,-7.66757 1.68449,-10.07735 4.22735,-2.49717 6.99401,-2.66832 12.44064,-0.7696 5.35437,1.86653 6.4871,6.44655 2.61398,10.56928 -3.98226,4.23893 -13.84988,4.40262 -16.73911,0.27767 z m 14.3863,-1.01584 c 3.38671,-1.81251 3.0099,-4.7928 -0.78855,-6.23696 -4.71177,-1.79142 -7.41562,-1.50332 -10.6771,1.13766 -2.49514,2.02045 -2.67142,2.64472 -1.23542,4.375 1.89646,2.2851 9.02508,2.69162 12.70107,0.7243 z m 132.41783,365.1632 c 0,-7.49693 -0.80245,-21.13755 -1.78322,-30.3125 -0.98076,-9.17495 -2.114,-20.33798 -2.5183,-24.80673 -7.87833,-87.08036 -10.48678,-114.97433 -18.23502,-195 -2.76245,-28.53125 -6.41226,-66.78125 -8.11068,-85 -1.69842,-18.21875 -3.65288,-38.46875 -4.34323,-45 -0.69037,-6.53125 -3.5117,-35.78125 -6.26964,-65 -2.75794,-29.21875 -5.14954,-54.25 -5.31468,-55.625 -0.25741,-2.14343 -0.72781,-1.9005 -3.2981,1.70328 -4.38153,6.14332 -5.40113,-8.29851 14.83822,210.17172 3.47115,37.46875 6.59316,71.21875 6.93781,75 0.83499,9.16098 4.17921,44.0193 4.97677,51.875 0.34899,3.4375 2.02173,21.71875 3.71718,40.625 1.69545,18.90625 5.08595,55.46875 7.53442,81.25 2.44849,25.78125 4.37079,48 4.27177,49.375 -0.29582,4.1079 -0.061,4.375 3.8467,4.375 l 3.75,0 0,-13.63077 z m -222.5,11.88117 c 0,-0.27478 -4.62955,-1.99287 -10.28789,-3.81796 -13.29818,-4.28932 -27.81075,-4.49276 -42.26548,-0.59245 -5.48498,1.48 -10.28128,3.19021 -10.65843,3.80046 -0.39247,0.63502 12.97836,1.10955 31.26302,1.10955 17.57183,0 31.94878,-0.22482 31.94878,-0.4996 z m 84.375,-1.46306 c -3.4375,-0.95651 -10.46875,-1.73911 -15.625,-1.73911 -5.15625,0 -12.1875,0.7826 -15.625,1.73911 -5.95609,1.65734 -5.22129,1.73913 15.625,1.73913 20.84628,0 21.58108,-0.0818 15.625,-1.73913 z M 214.38066,734.10326 c 2.21923,-22.51562 6.54461,-65.125 9.61199,-94.6875 3.06737,-29.5625 7.00512,-67.8125 8.75057,-85 1.74545,-17.1875 5.09082,-49.53125 7.43415,-71.875 2.34334,-22.34375 4.85007,-47.09375 5.5705,-55 0.72044,-7.90625 3.80209,-39.125 6.84812,-69.375 3.04601,-30.25 6.21855,-62.71415 7.05007,-72.14255 l 1.51186,-17.14255 -3.64582,-5.60471 -3.64583,-5.60472 -0.0501,5.24727 c -0.0275,2.88599 -0.71186,10.87226 -1.5207,17.74726 -1.98329,16.85777 -2.44076,21.27115 -4.01666,38.75 -2.0648,22.90128 -2.22038,24.36735 -3.58169,33.75 -0.69824,4.8125 -1.86631,17.1875 -2.59574,27.5 -0.72942,10.3125 -1.87422,21.28125 -2.544,24.375 -1.05177,4.85824 -4.74727,38.3828 -6.82065,61.875 -0.36406,4.125 -2.04401,21.5625 -3.7332,38.75 -1.6892,17.1875 -3.67891,39.96875 -4.42157,50.625 -2.00653,28.79093 -3.46822,46.06278 -5.60663,66.25 -1.05599,9.96875 -3.03745,31.90625 -4.40326,48.75 -4.19405,51.72253 -6.23223,72.51882 -8.60473,87.79687 -1.2531,8.06952 -1.99007,14.96015 -1.63772,15.3125 0.35235,0.35235 1.85011,0.64063 3.32836,0.64063 2.61348,0 2.79924,-1.13121 6.72268,-40.9375 z m 28.90379,32.5 c -0.01,-0.51562 -0.54961,-1.77655 -1.19795,-2.80205 -0.89105,-1.40938 -1.5311,-1.51226 -2.62195,-0.42141 -0.79373,0.79373 -1.0652,2.05464 -0.60328,2.80205 0.94633,1.53119 4.45265,1.86525 4.42318,0.42141 z m 16.26914,-2.1875 c 1.2977,-1.56363 1.1278,-1.875 -1.02318,-1.875 -2.73764,0 -4.44245,1.61772 -3.10951,2.95065 1.2595,1.2595 2.45236,0.94902 4.13269,-1.07565 z m 35,-8.125 c 0,-2.43648 -1.32584,-3.2575 -2.83054,-1.75278 -1.0014,1.00138 0.30922,4.25278 1.71427,4.25278 0.61394,0 1.11627,-1.125 1.11627,-2.5 z m -60,-1.91422 c 0,-2.0151 -3.32697,-3.92548 -4.60704,-2.6454 -0.89029,0.89027 1.93445,4.55962 3.51009,4.55962 0.60332,0 1.09695,-0.8614 1.09695,-1.91422 z m 205.75,-11.08578 c 3.42308,-3.42308 4.25,-5.22726 4.25,-9.27276 0,-8.90775 -0.33798,-9.07547 -10.1999,-5.06214 -4.84503,1.97169 -9.47128,3.5849 -10.28058,3.5849 -1.76367,0 -4.16951,6.03438 -3.56397,8.93927 0.5416,2.59821 7.28821,5.99477 11.98195,6.03227 2.40908,0.0193 4.9385,-1.34754 7.8125,-4.22154 z m -150.75,-2 c 0,-1.375 -0.81055,-2.5 -1.80123,-2.5 -2.20824,0 -3.62007,2.05705 -2.57377,3.75 1.35936,2.1995 4.375,1.33789 4.375,-1.25 z m 113.11001,0.0472 c 1.07122,-3.37517 -4.04369,-12.54725 -6.9971,-12.54725 -1.7747,0 -2.73056,8.82382 -1.29678,11.97067 1.7374,3.81317 7.14725,4.18925 8.29388,0.57655 z m 143.10249,0.59715 c 4.53242,-2.34381 11.63921,-11.00203 14.38015,-17.5194 5.34558,-12.71061 4.32685,-24.53207 -3.25628,-37.78597 -2.77295,-4.84663 -3.87237,-8.46331 -4.01499,-13.20776 l -0.19638,-6.53354 -6.25,2.16034 c -3.4375,1.18817 -7.16969,2.17868 -8.29374,2.20112 -3.18703,0.0636 -6.4126,5.98461 -5.71635,10.49314 0.96534,6.25104 1.68616,8.56326 5.33556,17.11525 4.01419,9.40681 4.52529,19.79972 1.41054,28.68242 -5.06045,14.43148 -2.83865,19.27608 6.60149,14.3944 z m -339.3431,-31.2694 c 7.54625,-80.97473 14.6285,-158.64016 15.67313,-171.875 0.67832,-8.59375 1.5083,-19 1.84442,-23.125 0.33611,-4.125 1.47798,-18.1875 2.5375,-31.25 2.96551,-36.56131 5.27361,-61.53206 8.08782,-87.5 1.41563,-13.0625 3.09844,-29.09375 3.73959,-35.625 2.44176,-24.87337 3.76284,-36.98198 4.36409,-40 0.3424,-1.71875 2.01965,-17.27772 3.72722,-34.57548 2.73796,-27.7357 2.90261,-32.09122 1.39405,-36.875 -1.7192,-5.45172 -5.5277,-16.0261 -21.98776,-61.04952 -4.90118,-13.40625 -11.82796,-32.81249 -15.39285,-43.12499 l -6.48161,-18.75 -0.30984,46.25 c -0.79469,118.62353 -0.84104,568.14089 -0.0581,563.72498 0.48512,-2.73625 1.77318,-14.53749 2.86238,-26.22499 z m 63.58263,28.75 c -0.39573,-1.03125 -0.94057,-1.875 -1.21077,-1.875 -0.27019,0 -0.49126,0.84375 -0.49126,1.875 0,1.03125 0.54485,1.875 1.21077,1.875 0.66591,0 0.88699,-0.84375 0.49126,-1.875 z M 373.86585,734.602 c 0.77631,-2.1966 0.70304,-6.18639 -0.21169,-11.52654 -1.26939,-7.41062 -1.93116,-8.63556 -7.14452,-13.22455 -6.13699,-5.402 -10.76867,-12.38046 -13.66447,-20.58806 -1.8211,-5.16152 -8.29158,-13.37304 -8.29158,-10.5226 0,3.925 4.20571,17.14853 7.49985,23.58094 1.99827,3.90199 6.77955,13.74202 10.62505,21.86674 7.12256,15.04843 8.94873,16.74838 11.18736,10.41407 z m -36.17598,0.40313 c 2.21309,-6.9728 1.62003,-10.06009 -4.24313,-22.08817 -7.06759,-14.49895 -9.15788,-22.0191 -9.02435,-32.46665 l 0.0986,-7.7154 -5.2962,3.02949 c -15.93302,9.11383 -17.6455,14.24154 -9.64917,28.8927 12.29693,22.5309 20.21803,32.86268 25.20622,32.8774 1.1568,0.004 2.46541,-1.1348 2.90803,-2.52937 z m 163.11372,-0.0744 c 0,-1.4355 2.00175,-7.1628 4.44833,-12.72733 4.89675,-11.13723 5.39122,-16.01125 3.07264,-30.28767 -0.78159,-4.8125 -1.28186,-11.76585 -1.11172,-15.45188 0.30021,-6.50427 0.18803,-6.75289 -3.8041,-8.43147 -2.26239,-0.95126 -4.61268,-1.42102 -5.22285,-1.04391 -0.6158,0.38059 -0.73512,5.80055 -0.26817,12.18146 1.6304,22.27949 1.15307,27.6922 -3.18373,36.10108 -4.43364,8.59665 -4.72395,10.85931 -2.05543,16.01967 3.0021,5.80543 8.12503,8.10053 8.12503,3.64005 z m 10.49786,-0.0134 c 4.59232,-3.61226 9.50214,-13.77706 9.50214,-19.67223 0,-2.6833 -1.23303,-8.46762 -2.74004,-12.85406 -2.00806,-5.84475 -2.7594,-11.04712 -2.8125,-19.47385 -0.0612,-9.71204 -0.40108,-11.58444 -2.18759,-12.05155 -1.16331,-0.30416 -2.42894,-0.23921 -2.8125,0.14435 -1.20604,1.20605 -0.76547,9.38493 1.22128,22.67226 1.71722,11.4847 1.71973,13.60834 0.024,20.22757 -1.04208,4.06762 -2.7687,8.72958 -3.83693,10.35991 -2.40675,3.67316 -4.51011,10.75985 -3.62071,12.19894 1.10105,1.78153 3.74337,1.21715 7.26287,-1.55128 z m -42.0299,-6.13776 c 1.91096,-3.59389 1.29486,-16.9761 -0.88176,-19.15273 -0.99955,-0.99955 -2.463,-0.28632 -5.363,2.61368 -3.22515,3.22515 -3.92952,4.86172 -3.68094,8.55266 0.41521,6.16541 3.55756,12.00784 6.18614,11.50162 1.1461,-0.22072 2.8289,-1.80257 3.73956,-3.51523 z m -192.21796,-5.54009 c 0,-1.99079 -2.26795,-3.84749 -3.36259,-2.75285 -1.0283,1.0283 0.5769,4.55407 2.07336,4.55407 0.70908,0 1.28923,-0.81055 1.28923,-1.80122 z m 326.23086,-3.58505 c 0.0105,-0.5562 -0.54336,-0.66363 -1.23086,-0.23873 -0.6875,0.4249 -1.24139,1.72373 -1.23087,2.88628 0.0165,1.82159 0.18662,1.85459 1.23087,0.23872 0.66645,-1.03125 1.22033,-2.33007 1.23086,-2.88627 z M 628.30741,453.6966 c 0.0302,-318.48678 0.005,-324.95951 -1.24889,-321.15589 -0.5666,1.71875 -7.04442,20.5625 -14.39518,41.87499 -7.35077,21.3125 -16.4598,47.75 -20.24233,58.75 -3.8721,11.26053 -6.80017,21.91177 -6.7008,24.375 0.51428,12.74683 4.41776,56.08858 17.5623,195 11.09708,117.27395 12.7044,134.03087 18.13136,189.02685 3.10184,31.43353 5.63972,59.2304 5.63972,61.77084 0,2.54044 0.27672,4.34226 0.61492,4.00405 0.33821,-0.33821 0.62573,-114.47884 0.6389,-253.64584 z m -272.9587,209.13999 c 2.29665,-3.15434 2.35033,-3.78395 0.68888,-8.08029 l -1.80185,-4.6594 -3.47155,4.36839 c -1.90935,2.4026 -4.14109,7.15929 -4.9594,10.5704 -1.3687,5.70541 -1.25948,6.57154 1.36405,10.81649 l 2.85188,4.61446 1.41864,-7.10457 c 0.78025,-3.90752 2.53946,-8.64398 3.90935,-10.52548 z m 26.51185,-25.29589 c 3.35199,-2.0625 6.61464,-3.75 7.25034,-3.75 0.6357,0 1.28666,-3.12681 1.44659,-6.94846 0.19085,-4.56096 1.81991,-10.68137 4.74112,-17.8125 5.84813,-14.27617 7.1431,-28.37869 3.29775,-35.91316 -1.38971,-2.72299 -3.57099,-5.88663 -4.84726,-7.03031 -2.23729,-2.00487 -2.33318,-1.73589 -2.67361,7.5 -0.45639,12.38191 -3.0616,22.64183 -9.70869,38.23512 -3.60855,8.46523 -5.65323,15.36058 -6.23658,21.03181 -0.47733,4.64063 -0.52955,8.4375 -0.116,8.4375 0.41352,0 3.49438,-1.6875 6.84638,-3.75 z m 29.40083,-8.82847 c 4.72053,-0.6267 9.07991,-0.83224 9.6875,-0.45673 3.10295,1.91773 0.24925,-3.9655 -7.00683,-14.44535 -4.46135,-6.44345 -8.43675,-12.74003 -8.83424,-13.99241 -1.14495,-3.60742 -2.27661,-2.68135 -4.4935,3.67719 -1.13535,3.25642 -3.33885,9.30436 -4.89665,13.43987 -1.94881,5.17348 -2.55345,8.63048 -1.93822,11.08174 0.81571,3.25004 1.24539,3.48686 4.89665,2.69891 2.20137,-0.47506 7.86475,-1.37651 12.58529,-2.00322 z m 27.51536,-5.23403 c -2.60686,-3.60937 -6.78185,-8.92818 -9.27776,-11.81957 -7.86634,-9.11279 -12.4454,-19.10051 -12.4454,-27.14555 0,-3.87896 0.76675,-8.88778 1.7039,-11.13069 2.05156,-4.91006 10.96451,-12.99946 18.71486,-16.98561 7.79312,-4.00815 21.36111,-17.19013 23.91136,-23.23108 2.45848,-5.82352 3.89219,-20.75785 2.63574,-27.45528 -1.90756,-10.16815 -21.87571,-25.96644 -39.38024,-31.15663 -12.17255,-3.60922 -24.39125,-2.12884 -39.46062,4.78094 -6.64084,3.04504 -10.25654,5.75117 -15,11.22661 -11.71719,13.52531 -14.53558,22.03759 -11.37775,34.36378 3.36001,13.11543 8.05037,18.73168 25.67268,30.74058 15.4155,10.50505 20.01087,17.3025 20.06109,29.67435 0.0295,7.2733 5.61246,19.47568 13.30294,29.07565 3.85526,4.8125 7.58292,9.98625 8.28371,11.49724 1.2445,2.68334 3.42223,3.29928 13.85129,3.91764 l 3.54396,0.21012 -4.73976,-6.5625 z m -4.53358,-18.63315 c 0.46743,-9.55035 2.31442,-15.37168 9.1638,-28.88231 5.39428,-10.64041 10.67218,-25.56315 9.46733,-26.76799 -0.22376,-0.22376 -2.99724,1.6113 -6.16326,4.07794 -3.88872,3.02966 -6.02595,5.76773 -6.58714,8.4389 -0.45689,2.17476 -3.586,9.08879 -6.95358,15.36449 -7.94917,14.81384 -8.86431,20.81456 -4.34926,28.51892 1.83585,3.13264 3.73608,5.69167 4.22271,5.68674 0.48665,-0.005 1.02638,-2.90145 1.1994,-6.43669 z m 41.322,-7.46713 c 2.81924,-4.27838 3.75217,-6.74483 2.92948,-7.74488 -0.6639,-0.80704 -1.56676,-3.99859 -2.00635,-7.09234 -0.6329,-4.4542 0.0266,-8.0967 3.16829,-17.5 4.53826,-13.5832 5.32503,-27.37503 1.99766,-35.01815 l -1.89673,-4.35685 -0.10893,9.375 c -0.13554,11.66347 -1.40639,16.28793 -8.58557,31.24172 -7.13217,14.85588 -8.19683,23.23327 -4.04313,31.81367 1.5162,3.13204 3.12841,5.66418 3.58271,5.62699 0.45429,-0.0372 2.68745,-2.89253 4.96257,-6.34516 z m -116.4629,-7.02472 c 1.51553,-5.49676 2.32632,-12.58983 2.32632,-20.35131 l 0,-11.91381 -7.14762,-14.96119 c -3.93118,-8.22865 -7.82267,-17.37045 -8.64776,-20.3151 l -1.50016,-5.35391 -4.26981,4.10391 c -3.74085,3.59549 -4.19325,4.69109 -3.6517,8.84346 0.33996,2.60675 2.96413,8.62235 5.8315,13.36799 6.28526,10.40246 8.89645,18.52234 8.64807,26.89246 -0.1971,6.64229 3.80056,28.125 5.2337,28.125 0.46814,0 1.898,-3.79687 3.17746,-8.4375 z m -9.83647,-4.41176 c -0.86439,-10.76845 -3.96865,-16.12859 -17.24934,-29.78441 -18.49227,-19.01464 -18.61085,-20.88548 -2.00286,-31.59944 11.37347,-7.33712 18.64314,-15.54077 23.20207,-26.18302 4.18265,-9.76383 2.92419,-16.68622 -5.1998,-28.60229 -14.99326,-21.99183 -51.35313,-26.03805 -77.9353,-8.67286 -9.49912,6.20543 -12.24767,9.30872 -15.43317,17.42506 -4.93868,12.58325 -3.04538,22.83976 6.28587,34.05241 7.57277,9.09959 12.58889,12.54208 26.9808,18.51646 13.66122,5.67105 15.63744,7.06844 18.84079,13.32235 2.91985,5.70043 9.09063,12.41235 19.11605,20.79243 4.48553,3.74937 8.39676,8.54489 11.08908,13.59619 3.41711,6.41115 10.39971,14.79423 12.45223,14.94975 0.266,0.0201 0.20012,-3.49554 -0.14642,-7.81263 z m 80.88121,-9.01105 c 4.47683,-8.84029 7.91538,-16.29755 7.64123,-16.5717 -0.7673,-0.7673 -9.70582,5.19474 -13.4687,8.9837 -2.44049,2.45739 -3.58637,5.20173 -4.19032,10.03556 -0.74756,5.98327 0.17647,15.32732 1.39519,14.1086 0.2656,-0.26561 4.14578,-7.71588 8.6226,-16.55616 z m 141.85364,-5.46195 c 4.6813,-15.71892 3.17122,-30.62917 -4.4127,-43.57015 l -3.13491,-5.34934 -3.38723,2.11755 c -1.86297,1.16465 -3.53467,2.20088 -3.71489,2.3027 -0.18021,0.10188 0.84244,2.83037 2.27257,6.06339 3.59241,8.12124 4.60343,25.22439 2.05998,34.84796 l -1.90683,7.21485 4.57597,2.41742 c 2.51679,1.32956 4.69278,2.44226 4.83554,2.47263 0.14277,0.0304 1.4084,-3.80227 2.8125,-8.51701 z m -13.5917,-2.88427 c 5.407,-10.59858 1.52495,-39.79347 -5.29133,-39.79347 -3.69486,0 -9.81403,6.66929 -9.81403,10.69633 0,7.09232 -3.05289,13.50819 -9.6363,20.25132 -3.63754,3.72579 -6.6137,7.28675 -6.6137,7.91325 0,0.62652 2.95312,1.17347 6.5625,1.21547 3.60937,0.042 9.65625,1.1093 13.4375,2.37176 3.78125,1.26247 7.28543,2.35311 7.7871,2.42364 0.50165,0.0705 2.10737,-2.2147 3.56826,-5.0783 z m -260.1928,1.89547 c 0.29566,-0.25982 -1.1202,-2.8311 -3.14635,-5.71396 -2.35938,-3.35699 -6.14809,-6.4884 -10.53756,-8.7094 -9.12543,-4.61733 -10.69199,-6.2894 -16.06293,-17.14486 -4.46677,-9.02799 -9.66796,-14.66164 -12.62587,-13.67567 -0.99037,0.33013 -0.68068,1.49857 0.95012,3.58485 1.33064,1.7023 3.4685,7.56433 4.75079,13.02672 2.20187,9.37963 6.44411,16.94338 9.50297,16.94338 2.30419,0 11.18643,7.81112 12.3438,10.85525 1.06008,2.78822 1.56733,2.92934 7.71109,2.14532 3.61701,-0.46158 6.81828,-1.05182 7.11394,-1.31163 z m 219.0708,-0.48281 c 3.13436,-0.87054 5.45547,-2.6506 7.25682,-5.56525 1.45667,-2.35693 4.4454,-5.79503 6.64164,-7.64023 5.965,-5.01156 7.2157,-7.34723 8.39255,-15.67306 1.29071,-9.13144 2.86164,-11.03354 13.50299,-16.34955 14.98432,-7.4856 27.38007,-21.64712 29.64665,-33.8698 2.01839,-10.88429 -5.62271,-29.43665 -15.67401,-38.05607 -17.66489,-15.14838 -43.47473,-16.47418 -65.81674,-3.38089 -12.97176,7.60196 -21.67371,22.07941 -22.67809,37.72956 -0.65486,10.20418 0.13861,12.64946 6.87066,21.17366 8.372,10.60073 21.47954,17.71759 36.41468,19.77169 3.58844,0.49354 7.35357,1.72648 8.36696,2.73986 4.41651,4.41652 0.78711,12.91184 -10.6684,24.97152 -4.80649,5.05998 -8.73907,9.71477 -8.73907,10.34397 0,0.6292 -0.34143,2.03375 -0.75874,3.12123 -0.89356,2.3286 0.75752,2.4844 7.2421,0.68336 z M 345.28707,555.79684 c -1.08216,-2.82209 -4.22083,-8.78733 -6.97482,-13.25608 -2.754,-4.46875 -5.00758,-9.29687 -5.00796,-10.72916 -10e-4,-3.80246 -0.97054,-4.21899 -5.06539,-2.1762 -4.94639,2.46758 -7.35645,6.16204 -6.36575,9.75824 0.44299,1.60805 6.14919,8.45836 12.68044,15.22292 10.57445,10.95219 11.92023,11.9713 12.28803,9.30528 0.22717,-1.64666 -0.47237,-5.30291 -1.55455,-8.125 z m 111.49654,-79.19325 c -1.22321,-20.07461 1.16689,-42.42379 5.42286,-50.7078 2.46282,-4.7937 7.63029,-9.5046 12.01205,-10.95071 5.81728,-1.91988 4.56854,-2.57849 -1.81616,-0.95788 -8.94027,2.26928 -15.77674,10.46793 -19.64022,23.55356 -2.85834,9.68119 -5.69759,28.0186 -5.70353,36.83649 -0.005,6.95886 0.31074,7.77706 4.68248,12.14638 2.57812,2.5767 4.96875,4.70355 5.3125,4.72635 0.34375,0.0227 0.22226,-6.56809 -0.26998,-14.64639 z m -53.33814,-5.32651 c 3.70322,-0.69504 7.29562,-1.98302 7.98312,-2.86219 0.6875,-0.87916 3.94535,-3.51646 7.23966,-5.86066 10.2962,-7.32668 13.80785,-16.17308 10.4336,-26.28392 -2.1068,-6.31293 -2.81685,-14.58536 -1.51428,-17.64188 0.47753,-1.12053 5.29214,-4.41839 10.69913,-7.32858 15.95074,-8.58511 22.20307,-16.43709 25.09564,-31.51627 1.33916,-6.9812 1.3198,-9.25515 -0.11588,-13.60514 -2.65455,-8.04339 -12.76771,-21.526 -19.48266,-25.9738 -8.53985,-5.65656 -14.36569,-7.04483 -29.34855,-6.99359 -12.37348,0.0424 -13.78616,0.31255 -21.50874,4.11436 -9.19129,4.52487 -19.08709,14.48689 -23.55149,23.70912 -2.16717,4.47677 -2.53408,7.04903 -2.05623,14.41517 0.69507,10.71483 2.52491,14.56168 11.5778,24.33988 5.23947,5.65926 9.66448,8.82281 18.69185,13.36326 16.7087,8.4039 20.89795,12.78647 21.72208,22.72449 0.69423,8.37136 -1.5675,12.1259 -14.07432,23.36387 -10.03101,9.01339 -13.34155,13.29956 -10.2722,13.29956 0.9616,0 4.77826,-0.56866 8.48147,-1.26368 z m -61.39188,-18.07163 c 0,-1.69692 2.53125,-9.55946 5.625,-17.47231 8.27071,-21.15389 7.32005,-30.22733 -4.32902,-41.31738 -10.20928,-9.71935 -10.30563,-13.41002 -0.55826,-21.38223 10.31995,-8.44053 16.98291,-15.67357 19.32856,-20.9823 3.14934,-7.12768 4.27839,-17.04604 2.54003,-22.31333 -2.33869,-7.08631 -14.21285,-18.14606 -24.96393,-23.25172 -8.74013,-4.15067 -10.31463,-4.4844 -21.35167,-4.52577 -11.14735,-0.0418 -12.52024,0.24482 -21.29071,4.44444 -11.58295,5.54633 -16.37653,9.51923 -20.64853,17.11343 -5.01685,8.91828 -5.89284,16.87782 -2.78137,25.27248 6.51498,17.57738 17.74597,26.42374 40.09618,31.58279 4.94197,1.14074 6.66305,2.28065 8.97642,5.94524 1.57416,2.49365 5.6908,6.90221 9.14807,9.7968 11.11595,9.3068 13.00163,21.89617 5.83136,38.93197 -1.74261,4.14027 -3.62081,9.62934 -4.17378,12.19798 -0.93839,4.35886 -0.74934,4.81257 2.83561,6.80532 5.13272,2.85312 5.71604,2.76684 5.71604,-0.84541 z m -91.3478,-8.49579 c 6.41455,-19.27573 18.38337,-33.92048 31.96001,-39.10545 10.77467,-4.11488 21.88779,1.01517 21.88779,10.10388 0,7.86406 -10.62998,14.76424 -19.36679,12.57144 -2.90216,-0.7284 -4.09796,-3.95085 -3.23013,-8.70462 0.1095,-0.59997 -0.71361,-0.7406 -1.8292,-0.3125 -1.1156,0.42809 -2.50122,0.77835 -3.07918,0.77835 -2.07143,0 -3.98932,8.45729 -2.53439,11.17585 3.46437,6.47324 17.32511,8.35107 27.51721,3.72797 7.35431,-3.33589 9.67451,-5.55978 13.33825,-12.78462 7.95369,-15.68456 -1.90356,-27.18893 -24.13451,-28.16735 -13.80778,-0.60768 -22.64898,3.20542 -32.38978,13.96935 -3.73532,4.12767 -6.79148,8.50078 -6.79148,9.71805 0,1.21727 -0.48859,2.51518 -1.08575,2.88424 -0.59717,0.36908 -1.45353,4.76164 -1.90303,9.76128 -0.4495,4.99962 -1.15072,12.04336 -1.55827,15.65273 -0.40755,3.60938 -0.4408,6.5625 -0.0739,6.5625 0.36691,0 1.83983,-3.52398 3.27314,-7.8311 z m 292.02958,-13.1064 c -1.33258,-9.28583 -3.85223,-16.84746 -7.31325,-21.94755 -4.59266,-6.76766 -8.38698,-15.01003 -9.19123,-19.96605 -0.96378,-5.93906 3.52928,-10.51126 17.0727,-17.37338 12.82842,-6.49987 20.112,-13.37537 22.92976,-21.64507 3.04261,-8.92953 2.58632,-13.99907 -2.14935,-23.88078 -5.38638,-11.23948 -11.46624,-15.90128 -32.55876,-24.96483 -6.73087,-2.89227 -23.53727,-1.8651 -33.84665,2.06865 -24.18509,9.22829 -33.72512,27.33509 -25.70132,48.78063 3.63242,9.70848 9.74254,15.29995 24.53135,22.449 13.69965,6.62253 15.70697,8.32482 17.61408,14.93746 0.69724,2.41756 4.98686,9.84289 9.53251,16.50071 8.55311,12.52738 12.35029,21.85895 11.24581,27.63663 -0.60018,3.13965 -0.35645,3.34208 4.02378,3.34208 l 4.66265,0 -0.85208,-5.9375 z m 40.34902,-25.77855 c -1.18864,-11.93977 -2.2506,-14.27556 -8.63022,-18.98228 -4.90392,-3.61802 -12.21283,-4.0423 -17.3508,-1.00724 -12.0856,7.13914 -8.92467,26.14222 4.95022,29.7601 2.5873,0.67464 2.75277,0.58115 0.96173,-0.54339 -1.18978,-0.74702 -3.58352,-3.78175 -5.31941,-6.74381 -3.64261,-6.21564 -3.24822,-12.17586 1.00269,-15.15331 6.02504,-4.2201 13.92765,1.74146 20.44884,15.42615 2.40211,5.04085 4.51905,8.97835 4.70428,8.75 0.18525,-0.22834 -0.16005,-5.40614 -0.76733,-11.50622 z M 412.99145,321.60393 c 0.642,-1.92818 -2.72704,-3.3534 -5.45364,-2.30712 -1.65904,0.63664 -1.73469,1.11224 -0.42745,2.68735 1.80254,2.17193 5.10236,1.95858 5.88109,-0.38023 z m 16.89391,-2.32604 c 2.22345,-2.82665 3.24094,-3.17241 7.61083,-2.58629 5.90327,0.79179 9.5574,-0.77735 9.5574,-4.10409 0,-1.30091 1.47788,-3.5278 3.28418,-4.94863 2.66984,-2.1001 3.00127,-2.92424 1.77173,-4.40574 -3.2586,-3.92639 3.04115,-10.59531 6.62414,-7.01233 1.07118,1.07119 0.89797,2.35262 -0.69269,5.12418 -2.4854,4.33055 -0.90243,5.03506 1.85557,0.82584 2.60069,-3.96917 1.25669,-18.70767 -1.4117,-15.48084 -2.33156,2.81954 -5.98731,0.71754 -7.0331,-4.0439 -1.09135,-4.96886 -5.64006,-6.48535 -13.48087,-4.49435 -7.33965,1.86374 -8.84568,3.13902 -3.70698,3.13902 20.5732,0 12.93663,18.97694 -8.4157,20.9131 -8.49142,0.76998 -17.18796,-2.44355 -27.34208,-10.1034 -6.57239,-4.95793 -13.91694,-15.42738 -13.94078,-19.8722 -0.01,-1.94897 -1.49909,-2.1875 -13.65251,-2.1875 l -13.64079,0 3.61814,6.5625 c 1.98999,3.60938 3.62834,7.54688 3.64079,8.75 0.0125,1.20313 0.72577,2.19612 1.58515,2.20664 3.15546,0.0386 5.05766,2.33624 5.82698,7.03816 0.6378,3.89809 1.32017,4.8244 3.57484,4.85279 3.58716,0.0451 7.78568,3.64453 7.78568,6.67463 0,2.93877 2.20097,4.67395 6.19767,4.88605 l 3.07268,0.16306 -3.52602,-2.81154 c -5.91227,-4.7143 -2.02581,-11.69652 4.78359,-8.59396 3.8821,1.7688 4.55204,8.15316 1.06059,10.10707 -2.04864,1.14648 -2.04864,1.33432 0,3.59804 1.18882,1.31363 2.16149,3.03653 2.16149,3.82868 0,2.47638 5.96817,3.19828 8.17733,0.98912 2.71438,-2.71437 4.46427,-2.52611 9.45032,1.01671 5.87302,4.17308 11.90696,4.16085 15.20412,-0.0309 z m -9.68555,-1.71368 c -1.83416,-2.02671 -1.95507,-2.82138 -0.66569,-4.375 0.86657,-1.04415 3.12533,-1.89845 5.01947,-1.89845 1.89413,0 4.1529,0.8543 5.01946,1.89845 1.28939,1.55362 1.16847,2.34829 -0.66569,4.375 -1.23269,1.3621 -3.19189,2.47655 -4.35377,2.47655 -1.16189,0 -3.12109,-1.11445 -4.35378,-2.47655 z m 4.87654,-0.78218 c 2.7963,-1.07304 2.4609,-4.24127 -0.44899,-4.24127 -2.74706,0 -4.3529,1.88258 -3.19877,3.75 0.90621,1.46628 1.05477,1.48629 3.64776,0.49127 z m -24.02276,-3.24127 c -2.31927,-2.31926 -1.79347,-4.50008 1.625,-6.73995 2.89483,-1.89676 3.35516,-1.89676 6.25,0 3.51861,2.30549 4.1367,6.33425 1.14776,7.48122 -3.1859,1.22255 -7.40563,0.87587 -9.02276,-0.74127 z m 8.27915,-3.08391 c -0.49269,-2.54042 -2.31947,-3.24539 -4.6268,-1.78552 -2.26434,1.43266 -0.68174,3.86943 2.51307,3.86943 1.67859,0 2.38316,-0.69463 2.11373,-2.08391 z m 25.13388,1.35414 c -2.3461,-2.82689 0.033,-6.05208 4.81748,-6.53073 2.82591,-0.28271 4.21001,0.28084 5.19084,2.11354 1.09625,2.04835 0.83563,2.85053 -1.44509,4.448 -3.551,2.48723 -6.48219,2.47668 -8.56323,-0.0309 z m 8.21197,-3.02023 c 0,-2.81643 -6.10622,-2.44382 -6.65507,0.40612 -0.35521,1.84447 0.23969,2.20337 3.10788,1.875 2.13922,-0.24492 3.54719,-1.15034 3.54719,-2.28112 z m -64.97724,-13.28081 c -3.10463,-3.10462 -1.94066,-7.26734 2.16412,-7.73966 2.75788,-0.31733 3.68929,0.26837 4.71438,2.96455 2.17606,5.72349 -2.60858,9.04504 -6.8785,4.77511 z m 5.60224,-2.38341 c 0,-1.99584 -3.32203,-3.93041 -4.58334,-2.66911 -0.39903,0.39903 -0.39243,1.59352 0.0147,2.65442 0.95862,2.49815 4.56865,2.50974 4.56865,0.0146 z m -16.23518,-13.05808 c -2.32106,-4.33693 -0.44267,-7.73443 4.02845,-7.28642 4.69738,0.47067 7.17841,3.78535 5.19925,6.94622 -2.07192,3.30904 -7.53111,3.5103 -9.2277,0.3402 z m 6.93431,-1.39765 c 1.32097,-2.13737 -2.84688,-5.7323 -4.60618,-3.973 -0.7837,0.7837 -1.08663,2.30647 -0.67317,3.38393 0.86512,2.25444 4.03173,2.60776 5.27935,0.58907 z m 64.30087,41.99495 c 0,-2.01943 -5.60408,-2.6814 -6.76725,-0.79935 -0.98792,1.59848 0.56115,2.67435 3.85058,2.67435 1.75925,0 2.91667,-0.74405 2.91667,-1.875 z m -43.75,-4.44877 c 0,-0.72808 -0.62539,-0.93725 -1.38975,-0.46485 -0.76438,0.4724 -1.85879,0.1 -2.43204,-0.82753 -0.57325,-0.92755 -1.41044,-1.31828 -1.86041,-0.86831 -1.34515,1.34515 0.65387,3.48446 3.25597,3.48446 1.33443,0 2.42623,-0.5957 2.42623,-1.32377 z m 58.1376,-4.90584 c -0.35925,-0.58127 0.0535,-1.34175 0.91711,-1.68994 0.97612,-0.39353 0.7705,-0.67042 -0.54344,-0.73176 -1.16255,-0.0542 -2.46137,0.46381 -2.88627,1.15131 -1.0267,1.66124 0.48008,3.9871 1.98176,3.05902 0.65121,-0.40247 0.89009,-1.20735 0.53084,-1.78863 z m -71.8876,-5.68461 c 0,-1.05284 -0.88157,-2.25253 -1.95903,-2.66599 -2.35091,-0.90212 -4.91457,1.30994 -3.73329,3.2213 1.27339,2.06038 5.69232,1.62929 5.69232,-0.55531 z m 13.75,-1.25 c 0,-2.47149 -3.51168,-3.8241 -5.29592,-2.03986 -1.17908,1.17908 0.98367,2.86073 4.98342,3.87485 0.17187,0.0436 0.3125,-0.78217 0.3125,-1.83499 z m 61.82161,-4.2494 c 0.39555,-0.64 0.20644,-1.48051 -0.42024,-1.86783 -0.62667,-0.3873 -1.46195,0.13633 -1.85616,1.16363 -0.77713,2.02516 1.10095,2.60612 2.2764,0.7042 z m -87.7127,-7.72746 c -2.10975,-2.10975 -4.61679,-0.102 -2.72259,2.18035 1.04601,1.26037 1.90673,1.41768 2.8107,0.51371 0.90396,-0.90396 0.87699,-1.72896 -0.0881,-2.69406 z m 95.89109,-0.10892 c 0,-2.01927 -0.36964,-2.38036 -1.39109,-1.35891 -0.76509,0.76509 -1.01315,2.00259 -0.55123,2.75 1.29299,2.0921 1.94232,1.62705 1.94232,-1.39109 z m -8.5,-11.25 c -1.16667,-1.16666 -1.5,-0.83333 -1.5,1.5 0,2.33334 0.33333,2.66667 1.5,1.5 1.16666,-1.16666 1.16666,-1.83333 0,-3 z m 118.10481,-18.1875 c 1.1761,-2.57812 2.3308,-5.03523 2.56602,-5.46025 0.23522,-0.42501 -21.95387,-0.84278 -49.30908,-0.9284 -27.35522,-0.0856 -99.74447,-0.52685 -160.86502,-0.98051 -109.66511,-0.814 -111.09695,-0.79319 -108.75,1.58054 1.30805,1.32296 3.29037,3.79944 4.40517,5.50326 l 2.0269,3.09786 65.4731,0.64707 c 36.0102,0.35588 105.26242,0.77776 153.89382,0.9375 l 88.42073,0.29043 2.13836,-4.6875 z m 20.20646,-46.99917 c 23.19625,-67.65382 32.45115,-95.18233 32.11775,-95.5335 -0.5336,-0.56203 -420.6792,-1.97783 -420.67717,-1.41759 0.001,0.51268 16.18636,46.81055 27.48971,78.63776 8.30101,23.37348 18.62964,51.5419 19.04114,51.92939 1.10076,1.03653 53.62516,1.86159 163.4673,2.56779 68.40625,0.4398 124.47248,0.87347 124.59163,0.96372 0.11913,0.0902 9.4036,0.24885 20.63212,0.35243 l 20.41546,0.18834 12.92206,-37.68834 z m -258.09391,28.26774 -3.90765,-0.46637 -1.39268,-10.86985 c -0.76597,-5.97841 -1.74482,-14.24485 -2.17523,-18.36985 l -0.78255,-7.5 88.9657,0.13283 c 50.411,0.0753 89.43963,0.61697 90.05931,1.25 0.94366,0.96399 -3.68135,30.29385 -5.54135,35.14096 -0.51779,1.34933 -15.35583,1.60593 -80.97594,1.40034 -44.18809,-0.13844 -82.10041,-0.46158 -84.24961,-0.71806 z m 157.56252,-2.80118 c -0.87141,-0.87141 -26.95943,-1.58536 -77.48431,-2.12052 -68.51576,-0.72573 -76.33467,-0.6084 -77.80354,1.1674 -1.48481,1.79508 5.54538,1.98747 77.48432,2.12053 55.30365,0.10225 78.72185,-0.2491 77.80353,-1.16741 z m 8.18188,-15.73261 c 1.5397,-7.94899 2.559,-14.69318 2.2651,-14.98708 -0.2939,-0.2939 -1.38709,0.16295 -2.42931,1.01522 -2.00124,1.6365 -6.64068,25.20362 -5.36723,27.2641 1.79105,2.89798 2.9217,0.18101 5.53144,-13.29224 z M 336.5438,227.6825 c -1.23253,-14.24062 -2.03134,-17.64174 -4.14344,-17.64174 -1.41804,0 -1.71344,0.99008 -1.21205,4.0625 0.36463,2.23438 1.36798,8.67638 2.22968,14.31555 1.97397,12.91812 4.26097,12.37939 3.12581,-0.73631 z m 158.5356,-2.02571 c 1.08141,-6.18256 1.968,-12.19641 1.9702,-13.36411 0.004,-1.97433 -5.58333,-2.12964 -79.73854,-2.21658 l -79.74252,-0.0935 1.52402,12.0189 c 0.83821,6.6104 1.88413,12.37901 2.32425,12.81914 0.44013,0.44012 33.24783,0.97226 72.906,1.18252 39.65818,0.21027 73.51203,0.51397 75.23078,0.6749 1.71875,0.16093 3.22278,0.27622 3.3423,0.25618 0.1195,-0.02 1.1021,-5.09489 2.18351,-11.27746 z m -74.27581,-24.45334 c -8.05607,-7.12299 -9.64785,-7.22615 -19.66592,-1.27452 -8.47906,5.03731 -11.58408,6.1257 -11.58408,4.0605 0,-0.57824 0.83736,-3.81262 1.86081,-7.1875 2.23719,-7.37725 1.85595,-7.82048 -10.16849,-11.82195 -4.36827,-1.45368 -7.94232,-3.12138 -7.94232,-3.70602 0,-1.45832 5.53778,-5.23871 13.69792,-9.35091 l 6.82293,-3.43833 -3.13674,-2.65948 c -1.7252,-1.46271 -5.07676,-4.14742 -7.44791,-5.96602 -2.37117,-1.81861 -3.86238,-3.76743 -3.31382,-4.33073 0.54857,-0.56329 5.61107,-1.62981 11.25,-2.37005 9.04684,-1.18761 10.22109,-1.63384 9.98457,-3.79428 -1.79773,-16.4202 -1.85403,-18.07339 -0.61542,-18.07339 0.73523,0 4.27227,3.375 7.86008,7.5 3.58782,4.125 6.88936,7.5 7.33676,7.5 0.4474,0 2.04324,-2.53125 3.5463,-5.625 1.50306,-3.09375 3.26434,-5.625 3.91396,-5.625 1.36295,0 4.75719,4.77805 8.27877,11.65398 3.81106,7.44116 4.3517,7.54716 13.68385,2.68291 4.66118,-2.42958 8.75271,-4.13959 9.09227,-3.80004 0.33955,0.33956 -0.0847,3.31081 -0.94279,6.60277 -3.78361,14.51535 -3.91901,13.23043 2.083,19.76745 3.02735,3.2972 5.06035,6.37399 4.51778,6.83731 -0.54259,0.46333 -3.79901,1.85309 -7.23651,3.08838 -3.4375,1.23528 -6.73313,2.68326 -7.32363,3.21772 -0.59049,0.53446 0.48738,3.7487 2.39526,7.14274 1.97777,3.51835 3.13265,7.04716 2.6867,8.2093 -0.68901,1.79554 -1.7698,1.59519 -9.07427,-1.68211 -4.56066,-2.04623 -8.72225,-3.72042 -9.24799,-3.72042 -0.52572,0 -1.45766,2.34533 -2.07097,5.21184 -0.6133,2.86653 -1.6776,5.37216 -2.3651,5.56809 -0.6875,0.19594 -3.78125,-1.88183 -6.875,-4.61724 z m 6.92582,-6.48952 c 1.24544,-5.80735 1.74096,-6.25975 4.75243,-4.33885 1.48321,0.94608 5.17101,2.69306 8.19511,3.88217 l 5.49835,2.162 -2.25254,-3.50174 c -1.2389,-1.92596 -3.01004,-4.61128 -3.93586,-5.96738 -0.92583,-1.35609 -1.68331,-2.7818 -1.68331,-3.16823 0,-0.38642 3.62335,-2.05764 8.05188,-3.7138 l 8.05188,-3.0112 -4.30188,-4.76166 c -2.36603,-2.61892 -4.29521,-4.90068 -4.28705,-5.07057 0.008,-0.1699 0.84524,-3.40265 1.86017,-7.1839 2.3644,-8.80886 2.33468,-9.50943 -0.3125,-7.36741 -4.36448,3.53161 -10.13022,6.1089 -12.03297,5.37874 -1.07031,-0.41072 -3.9611,-4.35004 -6.42396,-8.75405 -2.46286,-4.404 -5.00219,-8.00728 -5.64294,-8.00728 -0.64075,0 -1.50756,1.36485 -1.92623,3.033 -0.41869,1.66816 -1.88889,4.05351 -3.26713,5.3008 -2.7837,2.51922 -2.40257,2.79848 -11.40607,-8.35745 l -3.51182,-4.35135 0.62188,4.375 c 0.34202,2.40625 0.92089,5.78125 1.28636,7.5 1.02923,4.84025 -0.61404,6.14081 -9.88107,7.82036 l -8.59062,1.55696 7.10603,4.89411 c 3.90832,2.69176 7.10604,5.28248 7.10604,5.75716 0,0.47467 -4.5,2.89106 -10,5.36975 -5.5,2.47867 -10,4.96588 -10,5.52713 0,0.56124 3.23437,1.99327 7.1875,3.1823 10.62282,3.19512 10.68657,3.26767 8.44777,9.61309 -1.05157,2.98051 -1.66682,5.66425 -1.36722,5.96386 0.29961,0.29961 3.99527,-1.47755 8.21257,-3.94924 8.49485,-4.97869 9.09833,-4.91295 17.42079,1.89794 4.94302,4.04524 5.83676,3.82764 7.02441,-1.71026 z m 62.76168,-18.13782 -19.6875,-0.34883 0.0386,-5.28075 c 0.0213,-2.90442 0.54156,-9.21826 1.1563,-14.03076 0.61475,-4.8125 1.25828,-11.5625 1.43006,-15 0.17179,-3.4375 0.54938,-6.93748 0.83909,-7.77773 0.40604,-1.17766 16.1093,-1.53871 68.53134,-1.57568 57.73986,-0.0407 68.00459,0.21834 68.00459,1.71626 0,1.86277 -12.87059,36.7833 -15.07587,40.90389 -1.24107,2.31898 -2.90407,2.39853 -43.41982,2.07688 -23.17113,-0.18395 -50.98869,-0.49143 -61.81681,-0.68328 z m 97.50941,-3.31559 c 0.39586,-0.39587 -0.92088,-0.71657 -2.92608,-0.71269 -2.00521,0.004 -27.69271,-0.29783 -57.08333,-0.67049 -36.11548,-0.45793 -53.4375,-0.26207 -53.4375,0.60422 0,0.85003 17.57861,1.39166 52.1875,1.608 55.71795,0.34827 60.14197,0.2884 61.25941,-0.82904 z m 12.3174,-18.94848 c 6.23865,-17.59636 6.32329,-18.02127 3.58941,-18.02127 -2.44294,0 -3.38224,1.71312 -7.36777,13.4375 -2.51234,7.39062 -5.16938,14.63281 -5.90453,16.09375 -1.39262,2.76754 0.71989,9.08362 2.45735,7.34708 0.45993,-0.45968 3.71141,-8.94536 7.22554,-18.85706 z m -10.12154,4.32923 c 1.90115,-5.76153 4.49483,-13.14738 5.7637,-16.413 l 2.30705,-5.9375 -60.42705,0 -60.42704,0 -0.83172,10.3125 c -0.45745,5.67187 -1.15236,12.84375 -1.54425,15.9375 l -0.71253,5.625 56.2076,0.4755 56.20759,0.4755 3.45665,-10.4755 z m -352.97904,12.337 c -12.47877,-29.49758 -15.3997,-37.26961 -14.69602,-39.10336 0.55334,-1.44196 1.48089,-1.79625 2.98032,-1.13834 1.19733,0.52536 32.54189,1.18302 69.65458,1.46147 37.11269,0.27846 67.66009,0.68876 67.88311,0.91178 0.9249,0.9249 4.2799,39.43575 3.5918,41.22892 -0.6653,1.73376 -7.8168,1.95202 -63.95771,1.95202 l -63.20865,0 -2.24743,-5.31249 z m 127.2321,1.10968 c -1.35905,-1.18155 -116.04316,-1.97458 -116.76452,-0.8074 -0.51925,0.84016 18.89764,1.26022 58.25325,1.26022 32.46766,0 58.79772,-0.20377 58.51127,-0.45282 z m -119.14048,-5.16961 c -10.55749,-25.2242 -15.45518,-33.84441 -17.86182,-31.43777 -0.75548,0.75548 5.02622,17.09362 10.36495,29.28966 2.68669,6.13758 3.07238,6.49122 5.45609,5.00257 1.41078,-0.88104 2.32911,-2.16555 2.04078,-2.85446 z m 117.99465,-2.58009 c 0,-2.31433 -0.64193,-9.85304 -1.42649,-16.75268 l -1.42649,-12.5448 -63.05267,0 c -36.22355,0 -62.87539,0.47241 -62.63602,1.11025 0.22917,0.61064 3.5076,7.91361 7.28542,16.22883 l 6.86875,15.11858 30.63125,0.33367 c 16.84718,0.18352 42.58437,0.41925 57.19375,0.52385 l 26.5625,0.19018 0,-4.20788 z"
       style="fill-opacity:1" />
  </g>
</svg>
